<?xml version="1.0" standalone="no"?>
<!DOCTYPE svg PUBLIC "-//W3C//DTD SVG 20010904//EN"
 "http://www.w3.org/TR/2001/REC-SVG-20010904/DTD/svg10.dtd">
<svg version="1.0" xmlns="http://www.w3.org/2000/svg"
 width="1120.000000pt" height="1120.000000pt" viewBox="0 0 1120.000000 1120.000000"
 preserveAspectRatio="xMidYMid meet">
<metadata>
Created by potrace 1.11, written by Peter Selinger 2001-2013
</metadata>
<g transform="translate(0.000000,1120.000000) scale(0.100000,-0.100000)"
fill="#000000" stroke="none">
<path d="M5466 11103 c-1 -1 -53 -5 -116 -8 -63 -3 -131 -8 -150 -10 -19 -3
-64 -7 -100 -11 -84 -8 -115 -12 -115 -14 0 -1 -20 -4 -44 -6 -25 -3 -54 -10
-64 -16 -15 -8 -18 -7 -12 3 5 7 4 10 -2 6 -6 -4 -28 -9 -49 -13 -53 -8 -340
-71 -384 -84 -34 -11 -51 -15 -87 -24 -10 -3 -49 -14 -88 -26 -38 -13 -77 -24
-85 -25 -8 -2 -15 -4 -15 -5 0 -1 -7 -3 -15 -5 -8 -1 -40 -13 -70 -25 -30 -12
-56 -21 -58 -21 -1 1 -17 -5 -35 -13 -19 -7 -45 -17 -58 -21 -24 -7 -39 -13
-142 -59 -32 -14 -60 -26 -63 -26 -2 0 -48 -21 -102 -47 -53 -26 -100 -46
-104 -45 -5 1 -8 -3 -8 -9 0 -5 -4 -8 -9 -5 -5 4 -11 3 -13 -1 -1 -5 -25 -19
-53 -33 -71 -35 -233 -127 -265 -150 -16 -11 -33 -20 -39 -20 -5 0 -15 -8 -20
-17 -6 -10 -11 -15 -11 -11 0 14 -330 -215 -338 -234 -2 -5 -10 -8 -18 -8 -7
0 -19 -9 -26 -20 -7 -11 -18 -20 -25 -20 -7 0 -16 -6 -20 -13 -4 -7 -17 -20
-29 -28 -146 -101 -546 -498 -699 -693 -16 -22 -47 -57 -67 -80 -21 -23 -38
-44 -38 -48 0 -4 -7 -16 -15 -25 -34 -42 -147 -199 -153 -213 -3 -8 -8 -17
-11 -20 -4 -3 -26 -36 -50 -75 -24 -38 -52 -82 -62 -97 -11 -15 -19 -32 -19
-38 0 -5 -4 -10 -9 -10 -5 0 -11 -8 -14 -17 -3 -10 -22 -47 -42 -83 -75 -132
-135 -250 -135 -265 0 -8 -4 -15 -10 -15 -5 0 -10 -4 -10 -10 0 -5 -13 -37
-29 -70 -16 -33 -27 -60 -25 -60 2 0 -5 -18 -16 -41 -44 -84 -154 -389 -142
-389 4 0 1 -4 -6 -8 -7 -5 -14 -22 -16 -39 -3 -17 -10 -42 -17 -55 -7 -12 -11
-23 -10 -23 2 0 -3 -20 -10 -45 -7 -25 -13 -50 -15 -56 -1 -5 -11 -46 -22 -90
-36 -139 -70 -311 -97 -494 -8 -59 -14 -112 -21 -185 -3 -38 -7 -81 -10 -95
-2 -14 -6 -97 -9 -185 -3 -88 -6 -164 -6 -170 -2 -18 2 -199 6 -280 6 -134 15
-220 30 -295 2 -14 7 -41 9 -60 5 -34 20 -112 31 -157 24 -105 33 -137 49
-188 8 -27 16 -51 16 -52 0 -2 0 -4 1 -5 0 -2 2 -10 4 -18 1 -8 12 -39 24 -67
11 -29 18 -53 14 -53 -4 0 -2 -5 5 -12 7 -7 12 -20 12 -30 0 -10 5 -18 10 -18
6 0 9 -3 8 -7 -6 -18 171 -397 193 -413 3 -3 17 -25 30 -49 55 -101 172 -267
269 -381 14 -16 36 -43 50 -60 65 -79 259 -268 360 -350 30 -25 56 -48 58 -52
2 -5 10 -8 18 -8 8 0 14 -4 14 -9 0 -12 243 -175 360 -243 179 -102 466 -229
600 -263 8 -2 36 -11 63 -19 26 -8 47 -12 47 -9 0 3 6 0 14 -6 8 -6 18 -11 22
-10 5 1 11 0 14 -1 3 -1 13 -3 23 -6 9 -2 25 -6 35 -8 9 -3 19 -5 22 -6 3 -1
10 -3 15 -5 6 -1 12 -3 15 -5 3 -1 19 -4 35 -6 17 -2 53 -8 80 -13 28 -6 73
-14 100 -18 l50 -8 1 -505 c1 -465 6 -631 20 -743 9 -69 45 -239 59 -281 8
-22 12 -43 9 -48 -3 -4 0 -8 7 -8 7 0 10 -3 7 -6 -3 -3 3 -29 14 -57 11 -29
20 -56 22 -62 1 -5 7 -20 14 -31 6 -12 8 -24 5 -28 -3 -3 -2 -6 4 -6 5 0 15
-17 21 -38 21 -68 207 -378 234 -390 5 -2 8 -9 8 -16 0 -6 8 -19 18 -27 9 -9
31 -34 48 -55 66 -82 276 -284 295 -284 5 0 9 -4 9 -10 0 -5 7 -10 15 -10 8 0
15 -4 15 -8 0 -4 13 -16 30 -25 16 -10 35 -23 42 -30 23 -20 70 -52 133 -87
33 -19 62 -37 63 -42 2 -4 8 -6 13 -2 5 3 9 0 9 -7 0 -7 3 -10 6 -6 3 3 22 -3
41 -14 74 -42 305 -130 375 -143 13 -2 35 -9 49 -14 15 -6 29 -8 32 -6 3 3 14
1 24 -4 10 -5 41 -12 70 -16 28 -3 57 -8 65 -10 7 -3 37 -7 67 -11 29 -3 58
-8 62 -11 5 -3 9 0 9 6 0 7 6 8 18 2 21 -11 302 -10 319 1 6 4 14 3 18 -3 4
-6 11 -8 16 -4 5 3 26 8 47 10 20 3 51 7 67 9 31 4 49 7 142 26 29 6 56 10 60
11 5 0 15 4 24 9 9 4 27 10 40 13 31 6 100 29 169 55 30 12 64 25 74 28 34 11
227 112 273 143 24 17 46 30 49 30 8 0 190 137 218 164 126 119 158 151 204
202 29 32 79 95 112 139 82 110 72 95 113 167 6 13 15 25 19 28 8 7 128 252
128 263 0 5 6 23 14 40 13 30 28 75 54 157 15 49 40 148 46 190 14 80 19 116
21 140 2 14 4 25 5 25 7 0 10 188 11 662 2 299 5 544 8 544 3 1 15 3 26 4 31
5 97 16 125 21 14 3 39 8 55 11 17 3 37 9 46 14 9 4 18 6 21 4 3 -3 26 1 51 9
26 8 47 12 47 10 0 -2 12 1 28 7 15 6 36 12 46 15 54 10 314 104 396 142 30
15 57 27 60 28 30 9 70 30 70 35 0 4 13 10 29 14 16 3 35 13 42 21 6 8 17 14
23 14 7 0 45 20 85 45 40 25 77 45 82 45 5 0 9 4 9 9 0 5 10 13 23 17 12 4 24
9 27 13 10 13 70 51 79 51 5 0 11 3 13 8 2 4 37 32 78 64 41 31 85 65 96 75
12 10 39 32 59 48 101 81 338 328 425 444 14 19 33 42 43 52 9 11 17 22 17 25
0 5 17 28 60 81 6 7 10 14 10 17 0 2 22 37 48 78 80 121 230 407 247 471 2 4
4 9 5 12 1 3 3 8 5 13 1 4 7 21 15 37 26 63 100 288 95 293 -3 3 -1 10 4 16 6
6 12 25 15 41 2 17 5 32 7 35 1 3 3 10 4 15 1 6 5 21 8 35 4 14 9 37 12 53 3
15 7 38 10 52 14 72 27 156 30 200 1 17 3 30 4 30 5 0 11 79 15 198 2 71 7
131 9 134 3 2 1 18 -3 34 -5 16 -5 29 -1 29 4 0 7 10 5 23 -1 12 -3 22 -4 22
0 0 -3 65 -6 145 -5 156 -11 275 -14 275 -1 0 -3 18 -5 40 -4 37 -7 60 -19
160 -3 22 -8 58 -12 80 -4 22 -9 49 -10 60 -31 224 -147 660 -234 875 -12 30
-23 62 -25 70 -5 26 -113 266 -179 400 -66 132 -78 154 -159 293 -29 48 -56
96 -62 107 -5 11 -13 20 -17 20 -5 0 -8 4 -8 9 0 12 -122 195 -132 199 -5 2
-8 8 -8 13 0 8 -20 35 -47 64 -7 8 -13 16 -13 19 0 3 -6 14 -14 23 -8 10 -43
54 -77 98 -35 44 -66 82 -69 85 -3 3 -20 23 -39 45 -125 149 -427 453 -528
532 -15 12 -37 30 -48 40 -11 10 -31 26 -45 36 -14 9 -41 31 -60 48 -92 81
-339 252 -510 352 -47 28 -87 53 -90 57 -5 7 -43 22 -49 20 -2 -1 -7 2 -10 7
-13 20 -327 170 -526 253 -11 4 -36 15 -55 23 -29 12 -69 27 -90 32 -3 1 -13
5 -22 9 -9 4 -22 9 -30 10 -7 2 -24 7 -38 13 -14 6 -52 18 -85 28 -33 10 -94
28 -135 41 -63 19 -163 46 -220 59 -145 33 -160 36 -190 39 -14 2 -36 6 -50 9
-33 9 -78 17 -115 22 -16 2 -50 7 -75 10 -25 4 -56 8 -70 10 -14 2 -25 4 -25
5 0 1 -25 3 -55 6 -30 2 -75 6 -100 9 -118 12 -595 27 -604 18z m475 -807 c83
-5 280 -30 374 -47 33 -5 74 -12 90 -15 17 -3 84 -19 150 -35 66 -16 129 -32
139 -34 38 -9 201 -58 211 -63 6 -4 15 -7 21 -8 46 -7 348 -130 459 -187 33
-17 62 -32 65 -33 31 -10 70 -30 70 -36 0 -4 5 -8 11 -8 7 0 50 -23 98 -50
113 -66 109 -64 229 -142 57 -38 105 -68 108 -68 3 0 17 -11 32 -25 15 -14 52
-42 82 -62 30 -21 60 -43 65 -49 6 -6 53 -46 105 -90 88 -73 319 -298 400
-389 20 -22 65 -76 100 -120 35 -44 67 -82 70 -85 4 -3 20 -25 37 -50 27 -40
42 -58 83 -107 6 -7 11 -16 12 -20 0 -5 17 -33 38 -63 69 -102 134 -212 196
-330 21 -41 43 -78 47 -81 5 -3 9 -10 9 -15 0 -5 5 -20 11 -34 6 -14 11 -27
12 -30 1 -3 18 -40 38 -83 21 -43 37 -81 37 -84 0 -4 9 -26 20 -49 12 -23 23
-50 25 -60 2 -11 17 -54 34 -97 16 -43 35 -101 42 -128 7 -27 17 -49 21 -49 5
0 7 -4 4 -9 -3 -5 1 -28 9 -50 8 -23 16 -54 19 -69 2 -15 5 -27 6 -27 1 0 4
-11 6 -25 3 -14 9 -41 14 -60 12 -47 48 -226 54 -275 3 -22 8 -53 11 -68 3
-16 7 -53 8 -83 1 -29 4 -54 7 -54 3 0 6 -10 6 -22 4 -70 14 -227 17 -248 2
-14 -1 -33 -5 -42 -5 -10 -5 -18 0 -18 7 0 9 -80 2 -105 -1 -5 -1 -14 0 -20 5
-20 5 -125 0 -125 -3 0 -5 -35 -6 -78 0 -42 -3 -99 -7 -127 -4 -27 -9 -70 -12
-95 -4 -25 -9 -52 -11 -60 -3 -8 -8 -31 -10 -50 -3 -19 -10 -53 -15 -75 -6
-22 -13 -49 -15 -60 -3 -18 -8 -32 -30 -90 -4 -11 -9 -31 -11 -45 -2 -13 -9
-30 -15 -37 -5 -7 -7 -17 -3 -23 3 -5 2 -10 -2 -10 -5 0 -15 -17 -22 -37 -7
-21 -26 -66 -42 -101 -16 -35 -29 -67 -29 -72 0 -5 -6 -15 -12 -22 -7 -7 -24
-36 -38 -63 -21 -44 -105 -181 -127 -210 -4 -6 -35 -46 -68 -90 -193 -258
-466 -487 -765 -641 -52 -27 -97 -52 -98 -57 -2 -4 -8 -4 -13 -1 -6 3 -15 1
-22 -4 -12 -10 -88 -40 -198 -80 -59 -22 -170 -53 -204 -58 -11 -1 -20 -3 -20
-4 0 -2 -16 -5 -60 -14 -16 -3 -39 -8 -50 -10 -20 -4 -20 2 -20 1868 l-1 1871
-31 67 c-27 59 -143 197 -143 172 0 -5 -4 -4 -8 1 -9 13 -72 48 -72 40 0 -3
-6 -3 -12 2 -28 17 -138 23 -188 11 -19 -5 -41 -10 -47 -10 -7 -1 -13 -5 -13
-10 0 -5 -4 -7 -9 -3 -5 3 -15 0 -23 -7 -7 -7 -19 -14 -26 -15 -30 -7 -104
-84 -140 -146 -53 -92 -51 43 -51 -2576 0 -1340 -1 -2482 -1 -2538 l0 -103
-1305 1 c-718 0 -1305 3 -1305 7 -1 4 -1 1150 -1 2546 l-1 2540 -23 63 c-19
54 -84 151 -108 161 -4 2 -13 9 -20 16 -21 20 -80 53 -117 65 -70 22 -144 21
-235 -2 -125 -32 -251 -177 -272 -312 -3 -16 -5 -861 -6 -1877 0 -1599 -2
-1848 -15 -1848 -32 0 -166 35 -315 82 -245 78 -485 205 -707 376 -153 118
-385 368 -486 522 -16 25 -32 47 -36 48 -5 2 -8 10 -8 18 0 8 -5 14 -12 14 -6
0 -8 3 -5 7 4 3 1 13 -7 22 -52 60 -209 417 -241 548 -3 10 -16 65 -31 123
-49 199 -62 345 -58 655 1 154 5 294 7 310 3 17 8 59 11 95 4 36 9 76 11 90 2
14 6 41 9 60 5 32 37 206 51 275 3 17 13 57 22 90 8 33 16 65 18 70 10 44 18
72 23 85 3 8 6 20 7 25 2 15 54 177 65 200 5 11 25 61 43 110 57 148 128 305
140 305 6 0 7 3 4 6 -4 4 14 46 40 93 25 47 54 100 63 117 9 16 26 44 38 61
12 17 22 34 22 37 0 15 217 331 255 372 5 6 19 23 30 38 11 16 25 33 30 40 6
6 23 27 39 46 82 101 261 285 378 392 20 18 55 50 77 71 23 20 41 35 41 32 0
-3 10 5 23 17 30 32 201 161 315 237 110 74 322 202 322 196 0 -3 18 6 40 20
22 14 44 25 49 25 5 0 14 7 21 15 7 9 15 13 18 11 2 -3 31 8 63 25 32 16 60
28 62 27 2 -2 14 4 27 13 14 9 59 29 100 44 41 16 80 32 85 36 8 5 130 48 155
54 3 1 12 4 20 7 8 4 24 9 35 14 11 4 24 6 29 5 4 -1 13 3 20 8 6 6 27 13 45
16 19 3 42 10 52 15 10 6 29 10 43 10 14 0 28 5 31 10 4 6 10 8 15 5 5 -3 28
1 52 9 38 12 89 23 178 40 14 3 36 7 50 10 14 3 43 8 65 11 22 3 49 7 60 9 47
9 123 19 155 21 98 7 215 17 217 19 5 4 455 -2 534 -8z m941 -8515 c15 -2 -99
-239 -148 -307 -87 -120 -131 -171 -226 -260 -46 -43 -190 -148 -206 -151 -8
-1 -21 -8 -30 -16 -33 -29 -262 -125 -262 -110 0 3 -6 1 -12 -5 -12 -9 -60
-22 -103 -28 -11 -1 -20 -3 -20 -4 0 -3 -43 -10 -94 -14 -29 -3 -56 -7 -59
-10 -3 -3 -11 -1 -19 5 -7 6 -13 7 -13 2 0 -5 -28 -8 -62 -7 -35 1 -63 3 -63
4 0 1 -20 3 -45 4 -167 12 -361 73 -525 165 -136 76 -303 224 -385 341 -14 19
-27 37 -30 40 -27 25 -147 252 -153 288 -1 9 -5 22 -8 27 -24 42 -90 40 1220
39 680 -1 1239 -2 1243 -3z"/>
</g>
</svg>
