<svg xmlns="http://www.w3.org/2000/svg" viewBox="0 0 95.1 91.21"><defs><style>.cls-1{fill:#231f20;}</style></defs><title>Fichier 1</title><g id="Calque_2" data-name="Calque 2"><g id="Layer_1" data-name="Layer 1"><path class="cls-1" d="M95.1,13.23a4.41,4.41,0,1,1-8.81,0,4.41,4.41,0,1,1,8.81,0Zm-8.15,0a3.74,3.74,0,1,0,7.48,0,3.74,3.74,0,1,0-7.48,0ZM90.75,11c1.16,0,1.51.61,1.51,1.24a1.31,1.31,0,0,1-.79,1.2l1,1.93h-.78l-.87-1.72H89.9v1.72h-.64V11Zm-.85,2h.81a.77.77,0,0,0,.85-.75c0-.42-.22-.69-.85-.69H89.9Z"/><path class="cls-1" d="M45.45,0A45.6,45.6,0,0,0,0,42l24.44,10.1a12.89,12.89,0,0,1,7.27-2.24l.72,0L43.3,34.07v-.22a17.2,17.2,0,1,1,17.2,17.2h-.39L44.6,62.11c0,.2,0,.4,0,.61a12.91,12.91,0,0,1-25.57,2.54L1.57,58A45.6,45.6,0,1,0,45.45,0Z"/><path class="cls-1" d="M28.58,69.2,23,66.88a9.68,9.68,0,1,0,5.3-13.24L34.07,56A7.13,7.13,0,1,1,28.58,69.2Z"/><path class="cls-1" d="M72,33.85A11.47,11.47,0,1,0,60.5,45.31,11.48,11.48,0,0,0,72,33.85Zm-20,0a8.61,8.61,0,1,1,8.6,8.61A8.61,8.61,0,0,1,51.91,33.83Z"/></g></g></svg>