<?xml version="1.0" encoding="utf-8"?>
<!-- Generator: Adobe Illustrator 22.1.0, SVG Export Plug-In . SVG Version: 6.00 Build 0)  -->
<svg version="1.1" xmlns="http://www.w3.org/2000/svg" xmlns:xlink="http://www.w3.org/1999/xlink" x="0px" y="0px"
	 viewBox="0 0 61.7 70.3" xml:space="preserve" stroke="none" stroke-opacity="0">
		<path d="M31.1,69.6c7.2,0,13.1-5.8,13.1-13.1v-6.1c9.7-1.3,17-9.5,17-19.3C61.4,14.6,48.2,0.9,31.6,0.6S1.3,13.6,1,30.1
			c0,0.4,0,0.7,0,1.1c0,9.8,7.3,18,17,19.3v6.1C18,63.8,23.9,69.6,31.1,69.6z M31.1,64.8c-3.6,0-6.7-2.3-7.8-5.7h15.6
			C37.8,62.4,34.6,64.8,31.1,64.8z M5.9,31.2C5.6,17.3,16.7,5.8,30.6,5.6S56,16.3,56.2,30.2c0,0.3,0,0.7,0,1
			c0,7.1-5.1,13.1-12.1,14.3V22.5c0-1.3-1.1-2.4-2.4-2.4s-2.4,1.1-2.4,2.4v31.6H22.9V22.5c0-1.3-1.1-2.4-2.4-2.4S18,21.2,18,22.5
			v23.1C11,44.4,5.9,38.3,5.9,31.2z"/>
</svg>
